<svg xmlns="http://www.w3.org/2000/svg" viewBox="0 0 165.61 38.25">
    <defs>
        <style>
        .cls-1 {
            font-size: 6.1px;
            fill: #257cc0;
            font-family: Fieldwork, sans-serif;
            font-weight: 300;
            letter-spacing: 1.52em;
        }

        .cls-2 {
            letter-spacing: 1.5em;
        }

        .cls-3 {
            letter-spacing: 1.48em;
        }

        .cls-4 {
            fill: #c8a987;
        }

        .cls-5 {
            fill: #51783c;
        }

        .cls-6 {
            font-size: 1.71px;
            font-family: Porter-BoldDEMO, Porter;
            font-weight: 700;
            letter-spacing: 0.04em;
        }

        .cls-7 {
            fill: #c5ae95;
        }
        </style>
    </defs>
    <title>logo</title>
    <g id="Layer_2" data-name="Layer 2">
        <g id="Layer_1-2" data-name="Layer 1">
        	<text class="cls-1" transform="translate(8.19 34.82)">
        		<tspan>T</tspan>
        		<tspan x="12.76" y="0">E</tspan>
        		<tspan x="25.76" y="0">C</tspan>
        		<tspan x="38.76" y="0">H</tspan>
        		<tspan x="51.76" y="0">N</tspan>
        		<tspan x="64.76" y="0">O</tspan>
        		<tspan x="77.76" y="0">L</tspan>
        		<tspan x="90.76" y="0">O</tspan>
        		<tspan x="103.76" y="0">G</tspan>
        		<tspan x="118.76" y="0">I</tspan>
        		<tspan x="129.76" y="0">E</tspan>
        		<tspan x="142.76" y="0">S</tspan>
        	</text>
            <path class="cls-4" d="M74.31,3.51,75.49,5a17.87,17.87,0,0,1,.83,3,17.26,17.26,0,0,1,.24,2.21c-1,2.1-2,4.21-3,6.32.25-2.18.46-4.49.59-6.92C74.25,7.51,74.31,5.46,74.31,3.51Z" />
            <path class="cls-5" d="M69.47.61c-.59-.18-2.28,3.6-2.25,3.65.22.31,1.53-1,2.88-1.2a9.18,9.18,0,0,1,2.45.54c-1.71.48-5,2.92-5.75,3.41s-.42,8.55-.45,8.54,3-2.74,3.46-3.94A34.33,34.33,0,0,1,74.27,3.5C73.52,2.51,70.17.82,69.47.61Z" />
            <path class="cls-5" d="M78.48.06H76a3.54,3.54,0,0,0-.85,1.31,10.25,10.25,0,0,0-.62,1.87A12.23,12.23,0,0,1,78.48.06Z" />
            <path class="cls-5" d="M78.28,3.72l-1.2-1.17a4.21,4.21,0,0,0-2.22.67A6.38,6.38,0,0,1,78.28,3.72Z" />
            <path class="cls-5" d="M71.54.4a7.27,7.27,0,0,1,1.46,1,5,5,0,0,1,1.14,1.19s.14.34.15.29,0-.46,0-.79A4.44,4.44,0,0,0,73.89.68a1.62,1.62,0,0,0-.52-.62H71.24A.56.56,0,0,0,71.54.4Z" /><text /><text class="cls-6" transform="translate(160.38 1.97)">TM</text>
            <rect class="cls-7" y="26.5" width="164.64" height="0.66" />
            <path d="M161.4,10.18c-.19-3.65-2.47-6.48-5.89-8A24.11,24.11,0,0,0,142.56.28c-6.36.87-7.18,4.49-7.18,7.28,0,3,0,7.44,0,10.06s.93,4.57,3.85,4.57h.57a57.17,57.17,0,0,0,9.54-.2C156.9,21.13,161.74,16.7,161.4,10.18ZM149.7,20.51a21.07,21.07,0,0,1-4.76.18,2.75,2.75,0,0,1-3-2.89c0-2.28,0-8.24,0-10.88,0-4.1,2.16-5.2,4.67-5.4a8.82,8.82,0,0,1,2.51.14c1.92.39,7,1.55,7.28,8.59C156.62,15.91,153.93,19.76,149.7,20.51Z" />
            <path d="M61.58,20.8c-1.67,0-3.3,0-4.92,0a.76.76,0,0,1-.79-.86c0-5.12,0-19.1-.06-19.67,0-.3,0-.24-.31-.17-3.2.81-7.19,1.75-7.24,5.35,0,2.24,0,8.45,0,12.36h0A5.77,5.77,0,0,1,47.43,21a4.8,4.8,0,0,1-1.87,1.2h3.29a.47.47,0,0,0,.21,0l.34,0h1.28c3.13,0,9.52.07,15.43,0a3.86,3.86,0,0,0,2.68-1.44c.07-.12.36-.59.43-.72C68.62,20.16,68.44,20.8,61.58,20.8Z" />
            <path d="M4.22,22.19Z" />
            <path d="M14.92.28c0-.3,0-.21-.31-.17C11.29.62,7.4,1.35,7.36,5c0,2.13-.05,8.4-.05,12.27h0v.14a.49.49,0,0,1,0,.12A6.53,6.53,0,0,1,6.52,21a5,5,0,0,1-1.89,1.21l6.19,0A4.16,4.16,0,0,0,15,18C15,11.76,14.93.78,14.92.28Z" />
            <path d="M129,.73a1.06,1.06,0,0,0,0,.31s.17,12,0,13.31c-.12,1.06.22,3.14-1.9,3.14s-4.63-5.76-5.89-8.22c-.9-1.75-1.51-3.21-2.38-4.77h0C117,2,114.81.12,111.7.12a6.65,6.65,0,0,0-2.84.63A7.35,7.35,0,0,0,106,3.18,7.2,7.2,0,0,0,104.57,7c-.07,2.94,0,5.92,0,8.64a1.48,1.48,0,0,0,1.26,1.53c0-.09-.12-8.13,0-9.45a4.07,4.07,0,0,1,1.1-2.66,3.64,3.64,0,0,1,2.5-1.1c3.49,0,5.72,6.38,7,8.84.9,1.75,1.5,3.21,2.37,4.77h0c1.74,2.51,4,4.38,7.08,4.38,1,0,4.5-.41,4.5-6.88,0-2.85,0-8.53,0-12.3a2.14,2.14,0,0,0-1.4-2Z" />
            <path d="M105.27,20.94a7,7,0,0,1-3.57-1.59,7.87,7.87,0,0,1-1.63-1.63A21.83,21.83,0,0,1,97.53,13c-.78-1.81-1.47-3.65-2.27-5.44A19.78,19.78,0,0,0,92.5,2.82,6.8,6.8,0,0,0,87,.07c-6,0-8.83,6.66-11.38,12.35h0l0,0c-.59,1.33-1.17,2.61-1.77,3.73-.82,1.72-2.28,5.4-3.83,6,5.32.06,6.06-.05,6.66-.41C81,19.15,84.74,3.9,89.36,3.93a3.7,3.7,0,0,1,2.21.79,7.44,7.44,0,0,1,1.74,2.05,21.44,21.44,0,0,1,1.43,2.88c.38.89,1.48,2.52.54,3.38s-4.68,1-5.87,1.21a4,4,0,0,0-2.53.91l5.93-.05c1.42,0,4.09,0,4.63,1h0a12,12,0,0,1,.82,1.79h0l0,.15a3.14,3.14,0,0,1,.1,1,2.34,2.34,0,0,1-.07.45A3.48,3.48,0,0,1,97.66,21,4.16,4.16,0,0,1,96,22.1c.22,0,7.9,0,9.29,0a.44.44,0,0,0,.44-.44v-.32A.45.45,0,0,0,105.27,20.94Z" />
            <path d="M43.54,3.34C43.44,2,39.17,1,37.85.7a36.88,36.88,0,0,0-9-.55c-3.14.27-9.66.93-9.47,5.36A3.82,3.82,0,0,0,20.45,8,17.25,17.25,0,0,0,24.66,11c.37.22,1,.48,1.49.77h.06c2.94,1.65,7.55,4.2,8.33,4.68s2.89,1.61,2.57,2.73c-.15.51-.52.79-1.56,1.27-1.43.67-5.09.8-8.11.17a18.3,18.3,0,0,1-7.55-3.81.37.37,0,0,0-.61.27c0,.71,0,1.52,0,1.79.11,1.36,4.37,2.37,5.7,2.64a36.88,36.88,0,0,0,9,.56c3.14-.27,9.66-.93,9.47-5.37a3.87,3.87,0,0,0-1.06-2.44c-1.21-1.35-3.13-2.16-4.63-3.06-.31-.19-.79-.41-1.22-.65-2.82-1.64-7.44-4.31-8.25-4.8S25.42,4.15,25.74,3c.14-.51.52-.8,1.55-1.28,1.44-.66,5.1-.8,8.12-.16A18.37,18.37,0,0,1,43,5.41a.36.36,0,0,0,.6-.27C43.57,4.43,43.57,3.62,43.54,3.34Z" />
        </g>
    </g>
</svg>